<svg width="60" height="66" viewBox="0 0 60 66" fill="none" xmlns="http://www.w3.org/2000/svg">
<path fill-rule="evenodd" clip-rule="evenodd" d="M52.75 7H39.165C37.8 3.23 34.225 0.5 30 0.5C25.775 0.5 22.2 3.23 20.835 7H7.25C3.675 7 0.75 9.925 0.75 13.5V59C0.75 62.575 3.675 65.5 7.25 65.5H52.75C56.325 65.5 59.25 62.575 59.25 59V13.5C59.25 9.925 56.325 7 52.75 7ZM30 6.1875C30.715 6.1875 31.3325 6.5125 31.7875 7C32.1775 7.4225 32.4375 8.0075 32.4375 8.625C32.4375 9.9575 31.3325 11.0625 30 11.0625C28.6675 11.0625 27.5625 9.9575 27.5625 8.625C27.5625 8.0075 27.8225 7.4225 28.2125 7C28.6675 6.5125 29.285 6.1875 30 6.1875ZM7.25 13.5V59H52.75V13.5H7.25ZM30 16.75C24.6375 16.75 20.25 21.1375 20.25 26.5C20.25 31.8625 24.6375 36.25 30 36.25C35.3625 36.25 39.75 31.8625 39.75 26.5C39.75 21.1375 35.3625 16.75 30 16.75ZM26.75 26.5C26.75 28.2875 28.2125 29.75 30 29.75C31.7875 29.75 33.25 28.2875 33.25 26.5C33.25 24.7125 31.7875 23.25 30 23.25C28.2125 23.25 26.75 24.7125 26.75 26.5ZM10.5 50.7775V55.75H49.5V50.7775C49.5 42.6525 36.5975 39.1425 30 39.1425C23.4025 39.1425 10.5 42.62 10.5 50.7775ZM30 45.61C25.7425 45.61 20.25 47.43 18.0075 49.25H41.9925C39.7825 47.43 34.2575 45.61 30 45.61Z" fill="#0CA074"/>
</svg>
