<svg width="31" height="25" viewBox="0 0 31 25" fill="none" xmlns="http://www.w3.org/2000/svg">
<path d="M27.9994 1.18408C22.7743 7.25514 17.5489 13.3286 12.3241 19.3998C11.9025 19.888 11.4809 20.3789 11.0594 20.867C8.36637 17.5832 5.67618 14.2995 2.98315 11.0157C1.89877 9.69279 0.0266441 11.5815 1.10279 12.8961C4.10091 16.5515 7.09895 20.2098 10.0971 23.8649C10.5297 24.3918 11.5421 24.3697 11.9774 23.8649C17.2026 17.7938 22.4279 11.7203 27.6528 5.64912C28.3961 4.78662 29.1366 3.92404 29.8799 3.06153C30.9892 1.77188 29.1172 -0.116858 27.9995 1.18393L27.9994 1.18408Z" fill="#979797"/>
</svg>
