<svg width="38" height="38" viewBox="0 0 38 38" fill="none" xmlns="http://www.w3.org/2000/svg">
<path d="M26.9669 0.939941C27.4312 0.939941 27.8069 1.31564 27.8069 1.77994V6.93796C29.249 7.31531 30.3269 8.62451 30.3269 10.1799C30.3269 12.0255 28.8126 13.5399 26.9669 13.5399C25.1212 13.5399 23.6069 12.0255 23.6069 10.1799C23.6069 8.62456 24.6848 7.31533 26.1269 6.93796V1.77994C26.1269 1.31563 26.5026 0.939941 26.9669 0.939941V0.939941ZM11.0069 0.939941C11.4712 0.939941 11.8469 1.31564 11.8469 1.77994V6.93796C13.289 7.31531 14.3669 8.62451 14.3669 10.1799C14.3669 12.0255 12.8526 13.5399 11.0069 13.5399C9.16123 13.5399 7.64692 12.0255 7.64692 10.1799C7.64692 8.62456 8.72481 7.31533 10.1669 6.93796V1.77994C10.1669 1.31563 10.5426 0.939941 11.0069 0.939941V0.939941ZM32.8469 3.45994C35.1651 3.45994 37.0599 5.35486 37.0599 7.67296V32.8469C37.0599 35.1651 35.165 37.0599 32.8469 37.0599H5.15296C2.83477 37.0599 0.939941 35.165 0.939941 32.8469V7.67296C0.939941 5.35477 2.83486 3.45994 5.15296 3.45994H7.65986C8.10283 3.45338 8.51296 3.85533 8.51296 4.29994C8.51296 4.74455 8.10281 5.14649 7.65986 5.13994H5.15296C3.7371 5.13994 2.61986 6.25723 2.61986 7.67305V15.22H35.3799V7.67305C35.3799 6.25718 34.2626 5.13994 32.8468 5.13994H30.3399C29.8969 5.1465 29.4868 4.74455 29.4868 4.29994C29.4868 3.85533 29.8969 3.45339 30.3399 3.45994H32.8469ZM23.6199 3.45994C24.0843 3.45994 24.4599 3.83564 24.4599 4.29994C24.4599 4.76424 24.0842 5.13994 23.6199 5.13994H14.3799C13.9156 5.13994 13.5399 4.76424 13.5399 4.29994C13.5399 3.83564 13.9156 3.45994 14.3799 3.45994H23.6199ZM26.9668 8.49994C26.0284 8.49994 25.2868 9.24149 25.2868 10.1799C25.2868 11.1184 26.0284 11.8599 26.9668 11.8599C27.9053 11.8599 28.6468 11.1184 28.6468 10.1799C28.6468 9.24149 27.9053 8.49994 26.9668 8.49994ZM11.0068 8.49994C10.0684 8.49994 9.32684 9.24149 9.32684 10.1799C9.32684 11.1184 10.0684 11.8599 11.0068 11.8599C11.9453 11.8599 12.6868 11.1184 12.6868 10.1799C12.6868 9.24149 11.9453 8.49994 11.0068 8.49994ZM35.3799 16.8999H2.61986V32.8469C2.61986 34.2628 3.73714 35.38 5.15296 35.38H32.8469C34.2628 35.38 35.38 34.2627 35.38 32.8469L35.3799 16.8999Z" fill="#979797"/>
</svg>
