<svg width="55" height="77" viewBox="0 0 55 77" fill="none" xmlns="http://www.w3.org/2000/svg">
<path fill-rule="evenodd" clip-rule="evenodd" d="M27.5 0.548096C12.6163 0.548096 0.5 12.6643 0.5 27.5481C0.5 46.3468 23.99 72.5706 25.0025 73.6843L27.5 76.4518L29.9975 73.6843C31.01 72.5706 54.5 46.3468 54.5 27.5481C54.5 12.6643 42.3838 0.548096 27.5 0.548096ZM27.5 66.2593C20.1425 57.4506 7.25 39.4956 7.25 27.5481C7.25 16.3768 16.3288 7.2981 27.5 7.2981C38.6712 7.2981 47.75 16.3768 47.75 27.5481C47.75 40.4743 33.4062 59.1381 27.5 66.2593ZM16.3962 28.8981L22.3363 34.8718L37.8613 19.3468L42.62 24.1393L22.3363 44.4231L11.6038 33.6906L16.3962 28.8981Z" fill="#0CA074"/>
</svg>
