<svg width="9" height="37" viewBox="0 0 9 37" fill="none" xmlns="http://www.w3.org/2000/svg">
<path fill-rule="evenodd" clip-rule="evenodd" d="M4.50017 0.869995C2.38773 0.869995 0.666016 2.59167 0.666016 4.70415C0.666016 6.81659 2.38769 8.53831 4.50017 8.53831C6.61265 8.53831 8.33433 6.81663 8.33433 4.70415C8.33433 2.59171 6.61265 0.869995 4.50017 0.869995V0.869995Z" fill="#979797"/>
<path fill-rule="evenodd" clip-rule="evenodd" d="M4.50017 14.6705C2.38933 14.6705 0.666016 16.3874 0.666016 18.4999C0.666016 20.6123 2.38769 22.334 4.50017 22.334C6.61265 22.334 8.33433 20.6123 8.33433 18.4999C8.33433 16.3874 6.61265 14.6705 4.50017 14.6705Z" fill="#979797"/>
<path fill-rule="evenodd" clip-rule="evenodd" d="M4.50017 28.4667C2.38933 28.4667 0.666016 30.1851 0.666016 32.3008C0.666016 34.4133 2.38769 36.1301 4.50017 36.1301C6.61101 36.1301 8.33433 34.4133 8.33433 32.3008C8.33433 30.1851 6.61265 28.4667 4.50017 28.4667Z" fill="#979797"/>
</svg>
