<svg width="185" height="166" viewBox="0 0 185 166" fill="none" xmlns="http://www.w3.org/2000/svg">
<path d="M98 127.877C104.417 122.799 110.321 116.645 119.194 104.146C114.565 103.677 109.659 102.897 104 101.866C109.631 97.2249 115.488 90.2266 124.092 77.1715C120.232 76.6156 116.168 75.6709 111.5 74.3829C118.651 68.6947 126.235 58.6575 141.5 34C156.765 58.6564 164.349 68.6933 171.5 74.3814C166.832 75.6694 162.768 76.6142 158.908 77.1701C167.511 90.2251 173.369 97.2234 179 101.864C173.34 102.896 168.434 103.675 163.805 104.145C172.679 116.643 178.583 122.798 185 127.875C176.332 131.148 166.047 132.339 149 132.72V153H134V132.722C116.953 132.341 106.668 131.149 98 127.877Z" fill="#004F54"/>
<path d="M0 131.255C5.38452 126.86 10.3384 121.533 17.7837 110.715C13.8996 110.309 9.7831 109.634 5.03424 108.741C9.75918 104.724 14.6741 98.6667 21.8932 87.367C18.6544 86.8858 15.2443 86.068 11.3273 84.9532C17.3277 80.0298 23.691 71.3422 36.5 50C49.3085 71.3413 55.6722 80.0287 61.6724 84.952C57.7555 86.0668 54.3453 86.8845 51.1065 87.3657C58.3257 98.6654 63.2406 104.723 67.9655 108.74C63.2167 109.632 59.1002 110.307 55.216 110.714C62.6615 121.532 67.6154 126.858 73 131.254C65.7271 134.086 57.0968 135.117 42.7931 135.447V153H30.2069V135.448C15.9032 135.119 7.27285 134.087 0 131.255Z" fill="#033724"/>
<path d="M25 130.954C33.9988 123.871 42.2778 115.286 54.7208 97.8512C48.2294 97.1962 41.3498 96.1086 33.4134 94.6698C41.3099 88.196 49.5238 78.4337 61.5887 60.2225C56.1759 59.447 50.4768 58.1291 43.9306 56.3324C53.9586 48.3976 64.5932 34.3962 86 0C107.406 34.3947 118.041 48.3957 128.069 56.3304C121.523 58.127 115.824 59.445 110.411 60.2204C122.476 78.4317 130.69 88.194 138.586 94.6678C130.65 96.1065 123.77 97.1942 117.279 97.8491C129.722 115.284 138.001 123.869 147 130.952C134.845 135.518 120.422 137.179 96.5172 137.711V166H75.4828V137.713C51.5779 137.181 37.1546 135.519 25 130.954Z" fill="#75A599"/>
</svg>
