<svg width="63" height="56" viewBox="0 0 63 56" fill="none" xmlns="http://www.w3.org/2000/svg">
<path fill-rule="evenodd" clip-rule="evenodd" d="M55.6714 4.09913C54.9789 2.06869 53.0399 0.623291 50.7546 0.623291H12.6667C10.3814 0.623291 8.47705 2.06869 7.74992 4.09913L0.547852 24.7132V52.2446C0.547852 54.1374 2.10599 55.686 4.01039 55.686H7.47292C9.37731 55.686 10.9355 54.1374 10.9355 52.2446V48.8032H52.4859V52.2446C52.4859 54.1374 54.044 55.686 55.9484 55.686H59.4109C61.3153 55.686 62.8735 54.1374 62.8735 52.2446V24.7132L55.6714 4.09913ZM13.8783 7.50615H49.5077L53.2473 18.209H10.1387L13.8783 7.50615ZM7.47292 41.9204H55.9484V24.7133H7.47292V41.9204ZM16.1289 28.1547C13.2604 28.1547 10.9351 30.4659 10.9351 33.3169C10.9351 36.1678 13.2604 38.479 16.1289 38.479C18.9973 38.479 21.3227 36.1678 21.3227 33.3169C21.3227 30.4659 18.9973 28.1547 16.1289 28.1547ZM42.0983 33.3169C42.0983 30.4659 44.4236 28.1547 47.2921 28.1547C50.1605 28.1547 52.4859 30.4659 52.4859 33.3169C52.4859 36.1678 50.1605 38.479 47.2921 38.479C44.4236 38.479 42.0983 36.1678 42.0983 33.3169Z" fill="#0CA074"/>
</svg>
