<svg width="19" height="19" viewBox="0 0 19 19" fill="none" xmlns="http://www.w3.org/2000/svg">
<circle cx="9.5" cy="9.5" r="9.5" fill="#A93A3A"/>
<path d="M9.56738 12.1904H8.42578L8.33691 5.04688H9.66309L9.56738 12.1904ZM8.28906 14.3643C8.28906 14.1592 8.35059 13.9883 8.47363 13.8516C8.60124 13.7103 8.78809 13.6396 9.03418 13.6396C9.28027 13.6396 9.46712 13.7103 9.59473 13.8516C9.72233 13.9883 9.78613 14.1592 9.78613 14.3643C9.78613 14.5693 9.72233 14.7402 9.59473 14.877C9.46712 15.0091 9.28027 15.0752 9.03418 15.0752C8.78809 15.0752 8.60124 15.0091 8.47363 14.877C8.35059 14.7402 8.28906 14.5693 8.28906 14.3643Z" fill="white"/>
</svg>
