<svg width="2394" height="900" viewBox="0 0 2394 900" fill="none" xmlns="http://www.w3.org/2000/svg">
<g clip-path="url(#clip0)">
<g filter="url(#filter0_d)">
<rect x="-402" y="652" width="4964" height="248" fill="#0CA074"/>
</g>
<rect width="2394" height="900" fill="#A9C5BB"/>
<rect width="2394" height="900" fill="url(#paint0_linear)"/>
<path fill-rule="evenodd" clip-rule="evenodd" d="M4084.49 900V873.405C3986.53 765.688 3920.82 721.577 3666.96 849.069C3633.22 870.983 3604.07 888.703 3577.05 900H4084.49ZM3461.66 900C3440.78 889.637 3418.92 873.039 3394.83 849.069C3332.52 663.668 3207.62 646.411 2742.52 849.069C2694.33 872.339 2652.7 889.271 2614.99 900H3461.66ZM2438.76 900C2406.05 889.19 2372.62 872.165 2335.66 849.069C2227.16 748.22 2100.5 698.371 1912.48 698.357H1912.33C1692.96 698.374 1390.06 766.204 935.065 900H2438.76ZM924.292 900H78.6265C459.304 676.588 649.783 658.53 924.292 900Z" fill="#1F8365"/>
<path d="M1429 842.266C1433.65 838.682 1437.92 834.337 1444.35 825.515C1441 825.184 1437.44 824.633 1433.34 823.905C1437.42 820.629 1441.66 815.689 1447.89 806.474C1445.1 806.082 1442.16 805.415 1438.78 804.506C1443.95 800.49 1449.45 793.405 1460.5 776C1471.55 793.405 1477.05 800.489 1482.22 804.505C1478.84 805.414 1475.9 806.081 1473.11 806.473C1479.34 815.688 1483.58 820.628 1487.66 823.904C1483.56 824.632 1480 825.183 1476.65 825.514C1483.08 834.337 1487.35 838.681 1492 842.265C1485.72 844.575 1478.28 845.416 1465.93 845.685V860H1455.07V845.686C1442.72 845.417 1435.28 844.576 1429 842.266Z" fill="#033724"/>
<path fill-rule="evenodd" clip-rule="evenodd" d="M4085.83 900V868.709C3845.65 774.269 3543.03 689.371 3316.13 834.586C3223.13 874.411 3169.42 894.356 3010.65 834.586C2625.22 701.948 2409.04 639.134 1770.06 846.006C1765.32 847.211 1760.69 848.397 1756.14 849.562C1655.68 875.289 1598.49 889.937 1448.57 834.586C1412.32 823.762 1377.52 813.021 1344.04 802.687C1054.61 713.353 863.548 654.382 685.54 834.586C683.41 836.192 681.301 837.785 679.212 839.363C643.881 866.045 614.109 888.529 584.078 900H4085.83ZM500.078 900H0V896.316C18.7584 878.326 42.7001 857.732 73.2478 834.586C206 734 275.693 730.308 405.406 834.586C442.099 868.939 472.732 889.661 500.078 900Z" fill="#468F79"/>
<rect x="-14" y="-13" width="2422" height="102" fill="#A9C5BB"/>
<path d="M1150 829.943C1159.66 822.049 1168.55 812.481 1181.91 793.051C1174.94 792.321 1167.56 791.109 1159.03 789.506C1167.51 782.291 1176.33 771.411 1189.29 751.115C1183.48 750.251 1177.36 748.782 1170.33 746.78C1181.09 737.937 1192.51 722.333 1215.5 684C1238.49 722.331 1249.9 737.935 1260.67 746.778C1253.64 748.78 1247.52 750.249 1241.71 751.113C1254.67 771.409 1263.49 782.288 1271.97 789.503C1263.44 791.107 1256.06 792.319 1249.09 793.049C1262.45 812.479 1271.34 822.047 1281 829.941C1267.95 835.029 1252.46 836.881 1226.79 837.473V869H1204.21V837.475C1178.54 836.883 1163.05 835.031 1150 829.943Z" fill="#75A599"/>
<path d="M1570 805.488C1578.33 798.916 1586 790.952 1597.53 774.778C1591.52 774.17 1585.14 773.161 1577.79 771.826C1585.11 765.82 1592.71 756.764 1603.89 739.869C1598.88 739.15 1593.6 737.927 1587.53 736.26C1596.82 728.899 1606.67 715.91 1626.5 684C1646.33 715.908 1656.18 728.897 1665.47 736.258C1659.4 737.925 1654.12 739.148 1649.11 739.867C1660.28 756.762 1667.89 765.819 1675.21 771.824C1667.86 773.159 1661.48 774.168 1655.47 774.776C1667 790.95 1674.66 798.915 1683 805.486C1671.74 809.721 1658.38 811.263 1636.24 811.756V838H1616.76V811.757C1594.62 811.265 1581.26 809.723 1570 805.488Z" fill="#004F54"/>
<path d="M1734 906.954C1743 899.871 1751.28 891.286 1763.72 873.851C1757.23 873.196 1750.35 872.109 1742.41 870.67C1750.31 864.196 1758.52 854.434 1770.59 836.222C1765.18 835.447 1759.48 834.129 1752.93 832.332C1762.96 824.398 1773.59 810.396 1795 776C1816.41 810.395 1827.04 824.396 1837.07 832.33C1830.52 834.127 1824.82 835.445 1819.41 836.22C1831.48 854.432 1839.69 864.194 1847.59 870.668C1839.65 872.107 1832.77 873.194 1826.28 873.849C1838.72 891.284 1847 899.869 1856 906.952C1843.85 911.518 1829.42 913.179 1805.52 913.711V942H1784.48V913.713C1760.58 913.181 1746.15 911.519 1734 906.954Z" fill="#75A599"/>
<path d="M1811 726.044C1816.68 721.606 1821.9 716.227 1829.76 705.304C1825.66 704.894 1821.32 704.213 1816.31 703.311C1821.29 699.255 1826.48 693.139 1834.09 681.73C1830.68 681.244 1827.08 680.418 1822.95 679.293C1829.28 674.321 1835.99 665.549 1849.5 644C1863.01 665.548 1869.72 674.32 1876.05 679.291C1871.92 680.417 1868.32 681.243 1864.91 681.728C1872.52 693.138 1877.71 699.254 1882.69 703.31C1877.68 704.211 1873.34 704.893 1869.24 705.303C1877.09 716.226 1882.32 721.605 1888 726.042C1880.33 728.903 1871.23 729.944 1856.14 730.276V748H1842.86V730.278C1827.77 729.945 1818.67 728.904 1811 726.044Z" fill="#033724"/>
<path d="M722 842.199C727.975 837.591 733.471 832.005 741.733 820.662C737.423 820.236 732.855 819.528 727.586 818.592C732.829 814.381 738.282 808.029 746.292 796.181C742.699 795.676 738.915 794.819 734.569 793.65C741.227 788.488 748.287 779.378 762.5 757C776.712 779.377 783.773 788.486 790.431 793.649C786.085 794.818 782.301 795.675 778.707 796.18C786.718 808.028 792.171 814.379 797.414 818.591C792.145 819.527 787.577 820.235 783.267 820.661C791.528 832.004 797.025 837.589 803 842.198C794.93 845.168 785.354 846.249 769.483 846.595V865H755.517V846.596C739.646 846.251 730.07 845.169 722 842.199Z" fill="#004F54"/>
<path d="M2016 839.998C2025.44 832.318 2034.13 823.009 2047.18 804.104C2040.37 803.394 2033.15 802.214 2024.83 800.654C2033.11 793.634 2041.73 783.049 2054.39 763.302C2048.71 762.461 2042.73 761.032 2035.86 759.083C2046.38 750.479 2057.54 735.297 2080 698C2102.46 735.295 2113.62 750.477 2124.14 759.081C2117.27 761.029 2111.29 762.458 2105.61 763.299C2118.27 783.046 2126.89 793.632 2135.17 800.652C2126.85 802.212 2119.63 803.391 2112.82 804.101C2125.87 823.007 2134.56 832.316 2144 839.997C2131.25 844.947 2116.12 846.749 2091.03 847.325V878H2068.97V847.327C2043.89 846.751 2028.75 844.949 2016 839.998Z" fill="#004F54"/>
<path d="M668 757.955C671.983 754.712 675.648 750.781 681.155 742.799C678.282 742.499 675.237 742.002 671.724 741.343C675.219 738.379 678.855 733.909 684.195 725.572C681.799 725.217 679.277 724.613 676.379 723.791C680.818 720.158 685.525 713.748 695 698C704.475 713.747 709.182 720.157 713.621 723.79C710.723 724.612 708.201 725.216 705.805 725.571C711.145 733.908 714.781 738.378 718.276 741.342C714.763 742.001 711.718 742.499 708.845 742.798C714.352 750.781 718.017 754.711 722 757.954C716.62 760.044 710.236 760.805 699.655 761.048V774H690.345V761.049C679.764 760.806 673.38 760.045 668 757.955Z" fill="#033724"/>
<path d="M1377.59 828.997C1371.54 830.106 1366.29 830.945 1361.34 831.45C1370.83 844.894 1377.14 851.514 1384 856.976C1374.73 860.496 1363.74 861.778 1345.52 862.188V884H1337.5H1329.48V862.189C1311.26 861.779 1300.27 860.498 1291 856.977C1297.86 851.515 1304.17 844.895 1313.66 831.451C1308.71 830.946 1303.46 830.107 1297.41 828.998C1303.43 824.006 1309.69 816.478 1318.89 802.436C1314.77 801.838 1310.42 800.822 1305.43 799.437C1313.08 793.318 1321.18 782.522 1337.5 756C1353.82 782.523 1361.92 793.317 1369.57 799.436C1364.58 800.821 1360.24 801.837 1356.11 802.435C1365.31 816.477 1371.57 824.005 1377.59 828.997Z" fill="#004F54"/>
<path d="M581.897 777.84C575.196 779.054 569.388 779.971 563.908 780.523C574.413 795.228 581.403 802.468 589 808.442C578.738 812.292 566.562 813.695 546.38 814.143V838H537.501H528.621V814.144C508.439 813.696 496.262 812.294 486 808.444C493.598 802.47 500.587 795.229 511.093 780.524C505.613 779.972 499.804 779.055 493.104 777.841C499.771 772.382 506.705 764.148 516.891 748.79C512.321 748.136 507.51 747.024 501.983 745.509C510.449 738.817 519.428 727.008 537.5 698C555.573 727.009 564.551 738.816 573.017 745.508C567.491 747.023 562.68 748.134 558.11 748.788C568.296 764.147 575.23 772.38 581.897 777.84Z" fill="#18696E"/>
<path fill-rule="evenodd" clip-rule="evenodd" d="M1508.09 305.806C1473.19 305.471 1445 277.074 1445 242.094C1445 206.905 1473.53 178.379 1508.71 178.379C1510.75 178.379 1512.76 178.474 1514.74 178.66C1524.62 132.007 1566.05 97 1615.64 97C1658.62 97 1695.46 123.286 1710.96 160.658C1713.41 160.28 1715.91 160.084 1718.47 160.084C1739.93 160.084 1758.16 173.91 1764.74 193.141C1772.79 188.949 1781.94 186.58 1791.65 186.58C1823.87 186.58 1850 212.705 1850 244.932C1850 277.16 1823.87 303.285 1791.65 303.285C1779.42 303.285 1768.06 299.521 1758.68 293.089C1746.01 317.156 1720.75 333.566 1691.66 333.566C1671.53 333.566 1653.23 325.707 1639.67 312.89C1625.31 332.321 1602.23 344.921 1576.22 344.921C1547.16 344.921 1521.77 329.203 1508.09 305.806Z" fill="white" fill-opacity="0.45"/>
<path fill-rule="evenodd" clip-rule="evenodd" d="M2022.68 535.83C2043.88 535.627 2061 518.379 2061 497.131C2061 475.757 2043.67 458.43 2022.3 458.43C2021.06 458.43 2019.84 458.488 2018.64 458.601C2012.64 430.264 1987.48 409 1957.35 409C1931.25 409 1908.87 424.966 1899.46 447.666C1897.97 447.437 1896.44 447.318 1894.89 447.318C1881.86 447.318 1870.78 455.716 1866.79 467.396C1861.9 464.85 1856.34 463.411 1850.44 463.411C1830.87 463.411 1815 479.28 1815 498.855C1815 518.43 1830.87 534.299 1850.44 534.299C1857.87 534.299 1864.77 532.013 1870.47 528.106C1878.17 542.725 1893.51 552.692 1911.18 552.692C1923.41 552.692 1934.52 547.919 1942.76 540.133C1951.48 551.935 1965.5 559.589 1981.3 559.589C1998.95 559.589 2014.37 550.042 2022.68 535.83Z" fill="white" fill-opacity="0.3"/>
<path fill-rule="evenodd" clip-rule="evenodd" d="M927.449 587.082C920.72 587.082 914.3 585.763 908.432 583.369C895.286 610.46 867.515 629.137 835.382 629.137C816.008 629.137 798.22 622.347 784.267 611.018C774.138 622.649 759.221 630 742.586 630C722.895 630 705.61 619.699 695.826 604.191C688.392 610.081 678.993 613.598 668.773 613.598C645.007 613.598 625.683 594.581 625.187 570.933C624.875 570.967 624.561 570.998 624.247 571.026C600.336 573.116 579.258 555.426 577.168 531.516C575.078 507.605 592.767 486.527 616.678 484.437C620.067 484.14 623.4 484.242 626.629 484.702C632.424 459.631 654.891 440.941 681.723 440.941C689.52 440.941 696.948 442.519 703.705 445.373C719.912 423.316 746.038 409 775.507 409C808.201 409 836.779 426.62 852.263 452.882C859.096 448.122 867.403 445.331 876.362 445.331C899.53 445.331 918.338 463.998 918.566 487.113C921.449 486.6 924.418 486.332 927.449 486.332C955.27 486.332 977.823 508.886 977.823 536.707C977.823 564.529 955.27 587.082 927.449 587.082Z" fill="white" fill-opacity="0.5"/>
<path fill-rule="evenodd" clip-rule="evenodd" d="M608.904 262.172C604.854 262.172 600.99 261.378 597.458 259.938C589.547 276.24 572.835 287.48 553.497 287.48C541.837 287.48 531.132 283.394 522.735 276.576C516.64 283.575 507.662 287.999 497.652 287.999C485.802 287.999 475.399 281.8 469.511 272.468C465.037 276.013 459.381 278.129 453.23 278.129C438.928 278.129 427.298 266.685 427 252.454C426.812 252.474 426.623 252.493 426.434 252.509C412.044 253.767 399.359 243.121 398.101 228.732C396.843 214.342 407.489 201.657 421.879 200.399C423.918 200.221 425.924 200.282 427.868 200.559C431.355 185.47 444.876 174.223 461.023 174.223C465.715 174.223 470.186 175.173 474.252 176.89C484.006 163.616 499.728 155 517.464 155C537.139 155 554.337 165.604 563.656 181.409C567.768 178.544 572.767 176.864 578.159 176.864C592.102 176.864 603.421 188.099 603.558 202.01C605.293 201.701 607.079 201.54 608.904 201.54C625.647 201.54 639.22 215.113 639.22 231.856C639.22 248.599 625.647 262.172 608.904 262.172Z" fill="white" fill-opacity="0.3"/>
<g clip-path="url(#clip1)">
<path d="M908.973 852.282V836.317H912.846V848.923H919.011V852.282H908.973Z" fill="#CDDDD7"/>
<path d="M981.147 852.282L979.91 849.149H973.741L972.57 852.282H968.384L975.069 836.317H978.804L985.421 852.282H981.147ZM976.868 840.58L974.844 846.059H978.85L976.868 840.58Z" fill="#CDDDD7"/>
<path d="M1048.16 847.635C1048.16 848.505 1047.99 849.241 1047.64 849.832C1047.3 850.426 1046.84 850.901 1046.27 851.262C1045.7 851.622 1045.05 851.883 1044.32 852.04C1043.59 852.197 1042.85 852.278 1042.08 852.278H1035.73V836.313H1042.08C1042.69 836.313 1043.32 836.378 1043.97 836.505C1044.61 836.631 1045.2 836.85 1045.72 837.16C1046.25 837.467 1046.68 837.885 1047.01 838.41C1047.33 838.935 1047.5 839.606 1047.5 840.415C1047.5 841.301 1047.26 842.033 1046.78 842.612C1046.3 843.191 1045.67 843.609 1044.89 843.862V843.908C1045.34 843.985 1045.76 844.123 1046.16 844.326C1046.56 844.529 1046.9 844.79 1047.2 845.104C1047.49 845.419 1047.72 845.787 1047.89 846.209C1048.07 846.638 1048.16 847.11 1048.16 847.635ZM1043.79 840.941C1043.79 840.4 1043.58 840.005 1043.17 839.756C1042.76 839.507 1042.15 839.384 1041.34 839.384H1039.45V842.677H1041.52C1042.24 842.677 1042.8 842.532 1043.19 842.237C1043.59 841.941 1043.79 841.512 1043.79 840.941ZM1044.31 847.274C1044.31 846.615 1044.06 846.155 1043.57 845.898C1043.07 845.641 1042.41 845.515 1041.59 845.515H1039.45V849.168H1041.61C1041.91 849.168 1042.22 849.142 1042.54 849.088C1042.86 849.034 1043.16 848.942 1043.42 848.804C1043.68 848.67 1043.89 848.478 1044.06 848.229C1044.22 847.988 1044.31 847.665 1044.31 847.274Z" fill="#CDDDD7"/>
<path d="M1047.99 776.012H1041.31V829.228H1047.99V776.012Z" fill="#CDDDD7"/>
<path d="M1013.49 822.61H1034.83V829.228H1006.81V776.012H1013.49V822.61Z" fill="#CDDDD7"/>
<path fill-rule="evenodd" clip-rule="evenodd" d="M900.756 865.279C942.555 865.279 962.722 821.8 965.539 815.208L988.47 815.229C991.321 821.892 1011.49 865.279 1053.24 865.279C1092.14 865.279 1095 833.02 1095 827.441C1095 814.083 1085.2 802.416 1071.57 802.861C1058.29 803.294 1054.77 813.669 1054.77 818.673C1054.77 823.964 1058.18 829.247 1064.27 829.247C1069.82 829.247 1072.65 825.164 1072.32 821.594C1072.17 819.93 1070.98 817.212 1067.69 817.212C1065.47 817.212 1064.62 819.117 1064.66 820.179C1064.71 821.372 1065.68 822.242 1066.52 822.242C1067.01 822.242 1067.89 822.035 1067.88 821.046C1067.87 820.057 1067.09 820.122 1067.09 820.122C1067.09 820.122 1067.76 820.191 1067.81 820.827C1067.85 821.264 1067.67 822.081 1066.6 822.081C1065.2 822.081 1064.81 820.689 1064.85 820.007C1064.94 818.65 1066.38 817.473 1067.72 817.515C1071.57 817.63 1072.13 821.356 1071.49 823.45C1070.28 827.345 1066.2 828.817 1063.04 828.273C1060.61 827.855 1055.77 825.812 1055.77 818.995C1055.77 806.799 1067.02 804.107 1072.44 804C1081.67 803.816 1093.52 812.04 1093.52 827.361C1093.52 831.49 1091.95 862.407 1052.92 862.407C1018.22 862.407 998.407 822.185 995.525 815.905C992.642 809.625 989.252 800.093 987.304 794.825C985.567 790.125 980.787 776.012 980.787 776.012H973.408C973.408 776.012 968.215 790.834 966.371 795.772C964.739 800.148 960.015 812.118 958.801 815.19C957.724 817.657 937.679 862.407 901.082 862.407C862.054 862.407 860.485 831.49 860.485 827.361C860.485 812.04 872.333 803.816 881.56 804C886.983 804.107 898.234 806.799 898.234 818.995C898.234 825.812 893.397 827.855 890.967 828.273C887.806 828.817 883.722 827.345 882.517 823.45C881.87 821.357 882.437 817.63 886.279 817.515C887.622 817.473 889.069 818.65 889.149 820.007C889.191 820.689 888.801 822.081 887.4 822.081C886.336 822.081 886.156 821.264 886.191 820.827C886.244 820.191 886.914 820.122 886.914 820.122C886.914 820.122 886.13 820.057 886.122 821.046C886.114 822.035 886.998 822.242 887.481 822.242C888.326 822.242 889.298 821.372 889.344 820.179C889.386 819.117 888.533 817.212 886.313 817.212C883.026 817.212 881.836 819.93 881.683 821.594C881.357 825.164 884.182 829.247 889.739 829.247C895.827 829.247 899.229 823.964 899.229 818.673C899.229 813.669 895.712 803.295 882.429 802.861C868.805 802.409 859 814.076 859 827.433C859 833.02 861.863 865.279 900.756 865.279ZM968.384 808.67H985.341L976.899 784.657L968.384 808.67Z" fill="#CDDDD7"/>
<path d="M909.034 776.012H925.445C928.506 776.012 931.568 776.514 934.629 777.515C937.691 778.519 940.458 780.095 942.934 782.25C945.41 784.404 947.412 787.161 948.942 790.516C950.473 793.874 951.239 797.908 951.239 802.616C951.239 807.175 950.473 811.124 948.942 814.455C947.412 817.787 945.41 820.544 942.934 822.721C940.458 824.903 937.691 826.529 934.629 827.606C931.568 828.683 928.506 829.22 925.445 829.22H909.034V776.012ZM915.72 822.687H924.094C926.975 822.687 929.639 822.235 932.096 821.334C934.549 820.433 936.665 819.129 938.441 817.427C940.221 815.724 941.602 813.62 942.593 811.112C943.585 808.609 944.078 805.775 944.078 802.62C944.078 799.311 943.581 796.409 942.593 793.901C941.602 791.398 940.217 789.304 938.441 787.625C936.661 785.946 934.545 784.669 932.096 783.791C929.643 782.913 926.975 782.476 924.094 782.476H915.72V822.687Z" fill="#CDDDD7"/>
<path d="M868.665 758.287H871.03C872.127 758.287 872.919 758.447 873.405 758.767C873.896 759.086 874.141 759.591 874.141 760.281C874.141 760.746 874.021 761.133 873.781 761.442C873.542 761.751 873.197 761.945 872.746 762.025V762.079C873.306 762.185 873.716 762.394 873.978 762.706C874.243 763.015 874.375 763.434 874.375 763.965C874.375 764.68 874.125 765.241 873.623 765.648C873.126 766.051 872.432 766.253 871.542 766.253H868.665V758.287ZM869.967 761.578H871.221C871.765 761.578 872.163 761.493 872.414 761.322C872.664 761.148 872.79 760.854 872.79 760.439C872.79 760.065 872.654 759.795 872.381 759.628C872.112 759.461 871.684 759.377 871.095 759.377H869.967V761.578ZM869.967 762.635V765.158H871.351C871.896 765.158 872.307 765.054 872.583 764.847C872.862 764.637 873.002 764.306 873.002 763.856C873.002 763.442 872.861 763.135 872.577 762.935C872.294 762.735 871.864 762.635 871.286 762.635H869.967ZM882.945 758.287V763.442C882.945 764.03 882.818 764.546 882.564 764.989C882.313 765.428 881.948 765.768 881.468 766.008C880.993 766.244 880.422 766.362 879.758 766.362C878.77 766.362 878.001 766.1 877.453 765.577C876.905 765.054 876.63 764.335 876.63 763.42V758.287H877.938V763.327C877.938 763.985 878.09 764.47 878.396 764.782C878.701 765.094 879.169 765.25 879.801 765.25C881.029 765.25 881.643 764.606 881.643 763.316V758.287H882.945ZM885.652 766.253V758.287H886.954V766.253H885.652ZM889.732 766.253V758.287H891.035V765.136H894.407V766.253H889.732ZM899.201 766.253H897.899V759.404H895.556V758.287H901.544V759.404H899.201V766.253ZM907.007 766.253V758.287H908.31V766.253H907.007ZM917.724 766.253H916.127L912.21 759.906H912.166L912.194 760.26C912.245 760.935 912.27 761.553 912.27 762.112V766.253H911.088V758.287H912.668L916.574 764.602H916.607C916.6 764.519 916.585 764.215 916.563 763.692C916.542 763.166 916.531 762.755 916.531 762.461V758.287H917.724V766.253ZM927.453 759.29C926.705 759.29 926.117 759.555 925.688 760.085C925.26 760.616 925.045 761.348 925.045 762.281C925.045 763.258 925.25 763.997 925.661 764.499C926.075 765 926.673 765.25 927.453 765.25C927.791 765.25 928.118 765.218 928.434 765.152C928.75 765.083 929.079 764.996 929.42 764.891V766.008C928.796 766.244 928.087 766.362 927.295 766.362C926.13 766.362 925.234 766.01 924.609 765.305C923.985 764.597 923.672 763.585 923.672 762.27C923.672 761.442 923.823 760.717 924.124 760.096C924.43 759.475 924.869 758.999 925.443 758.669C926.017 758.338 926.691 758.173 927.464 758.173C928.278 758.173 929.03 758.344 929.72 758.685L929.251 759.769C928.983 759.642 928.698 759.531 928.396 759.437C928.098 759.339 927.784 759.29 927.453 759.29ZM938.878 762.259C938.878 763.556 938.553 764.564 937.903 765.283C937.256 766.002 936.339 766.362 935.151 766.362C933.949 766.362 933.025 766.006 932.378 765.294C931.735 764.578 931.414 763.563 931.414 762.248C931.414 760.933 931.737 759.924 932.384 759.219C933.034 758.514 933.96 758.162 935.162 758.162C936.346 758.162 937.262 758.52 937.908 759.235C938.555 759.951 938.878 760.959 938.878 762.259ZM932.798 762.259C932.798 763.24 932.996 763.985 933.392 764.493C933.788 764.998 934.374 765.25 935.151 765.25C935.925 765.25 936.508 765 936.9 764.499C937.296 763.997 937.494 763.251 937.494 762.259C937.494 761.282 937.298 760.541 936.906 760.036C936.517 759.531 935.936 759.279 935.162 759.279C934.381 759.279 933.791 759.531 933.392 760.036C932.996 760.541 932.798 761.282 932.798 762.259ZM941.258 766.253V758.287H942.561V765.136H945.933V766.253H941.258ZM947.976 766.253V758.287H949.278V765.136H952.651V766.253H947.976ZM959.635 766.253L958.839 764.041H955.794L955.014 766.253H953.641L956.622 758.255H958.038L961.019 766.253H959.635ZM958.496 762.919L957.75 760.75C957.695 760.605 957.619 760.376 957.521 760.064C957.426 759.751 957.361 759.522 957.325 759.377C957.227 759.824 957.083 760.312 956.894 760.843L956.175 762.919H958.496ZM962.74 758.287H965.104C966.201 758.287 966.993 758.447 967.48 758.767C967.97 759.086 968.215 759.591 968.215 760.281C968.215 760.746 968.096 761.133 967.856 761.442C967.616 761.751 967.271 761.945 966.821 762.025V762.079C967.38 762.185 967.79 762.394 968.052 762.706C968.317 763.015 968.45 763.434 968.45 763.965C968.45 764.68 968.199 765.241 967.698 765.648C967.2 766.051 966.506 766.253 965.616 766.253H962.74V758.287ZM964.042 761.578H965.295C965.84 761.578 966.238 761.493 966.488 761.322C966.739 761.148 966.864 760.854 966.864 760.439C966.864 760.065 966.728 759.795 966.456 759.628C966.187 759.461 965.758 759.377 965.17 759.377H964.042V761.578ZM964.042 762.635V765.158H965.426C965.971 765.158 966.381 765.054 966.657 764.847C966.937 764.637 967.077 764.306 967.077 763.856C967.077 763.442 966.935 763.135 966.652 762.935C966.368 762.735 965.938 762.635 965.36 762.635H964.042ZM977.848 762.259C977.848 763.556 977.522 764.564 976.872 765.283C976.226 766.002 975.309 766.362 974.121 766.362C972.919 766.362 971.994 766.006 971.348 765.294C970.705 764.578 970.383 763.563 970.383 762.248C970.383 760.933 970.706 759.924 971.353 759.219C972.003 758.514 972.929 758.162 974.132 758.162C975.316 758.162 976.231 758.52 976.878 759.235C977.524 759.951 977.848 760.959 977.848 762.259ZM971.767 762.259C971.767 763.24 971.965 763.985 972.361 764.493C972.757 764.998 973.344 765.25 974.121 765.25C974.895 765.25 975.477 765 975.87 764.499C976.266 763.997 976.464 763.251 976.464 762.259C976.464 761.282 976.268 760.541 975.875 760.036C975.487 759.531 974.905 759.279 974.132 759.279C973.351 759.279 972.761 759.531 972.361 760.036C971.965 760.541 971.767 761.282 971.767 762.259ZM981.53 761.992H982.434C983.041 761.992 983.481 761.88 983.753 761.654C984.025 761.429 984.162 761.095 984.162 760.652C984.162 760.202 984.015 759.878 983.72 759.682C983.426 759.486 982.983 759.388 982.391 759.388H981.53V761.992ZM981.53 763.071V766.253H980.228V758.287H982.478C983.506 758.287 984.267 758.48 984.761 758.865C985.255 759.25 985.502 759.831 985.502 760.608C985.502 761.6 984.986 762.306 983.955 762.728L986.205 766.253H984.723L982.816 763.071H981.53ZM992.977 766.253L992.181 764.041H989.135L988.356 766.253H986.983L989.964 758.255H991.38L994.36 766.253H992.977ZM991.838 762.919L991.091 760.75C991.037 760.605 990.961 760.376 990.863 760.064C990.768 759.751 990.703 759.522 990.666 759.377C990.568 759.824 990.425 760.312 990.236 760.843L989.517 762.919H991.838ZM998.833 766.253H997.531V759.404H995.188V758.287H1001.18V759.404H998.833V766.253ZM1003.07 766.253V758.287H1004.37V766.253H1003.07ZM1014.22 762.259C1014.22 763.556 1013.9 764.564 1013.25 765.283C1012.6 766.002 1011.68 766.362 1010.5 766.362C1009.29 766.362 1008.37 766.006 1007.72 765.294C1007.08 764.578 1006.76 763.563 1006.76 762.248C1006.76 760.933 1007.08 759.924 1007.73 759.219C1008.38 758.514 1009.31 758.162 1010.51 758.162C1011.69 758.162 1012.61 758.52 1013.25 759.235C1013.9 759.951 1014.22 760.959 1014.22 762.259ZM1008.14 762.259C1008.14 763.24 1008.34 763.985 1008.74 764.493C1009.13 764.998 1009.72 765.25 1010.5 765.25C1011.27 765.25 1011.85 765 1012.25 764.499C1012.64 763.997 1012.84 763.251 1012.84 762.259C1012.84 761.282 1012.64 760.541 1012.25 760.036C1011.86 759.531 1011.28 759.279 1010.51 759.279C1009.73 759.279 1009.14 759.531 1008.74 760.036C1008.34 760.541 1008.14 761.282 1008.14 762.259ZM1023.24 766.253H1021.64L1017.73 759.906H1017.68L1017.71 760.26C1017.76 760.935 1017.79 761.553 1017.79 762.112V766.253H1016.6V758.287H1018.18L1022.09 764.602H1022.12C1022.12 764.519 1022.1 764.215 1022.08 763.692C1022.06 763.166 1022.05 762.755 1022.05 762.461V758.287H1023.24V766.253ZM1036.93 766.253H1035.51L1034.16 761.502C1034.1 761.295 1034.03 760.997 1033.94 760.608C1033.86 760.216 1033.81 759.944 1033.79 759.791C1033.75 760.024 1033.69 760.325 1033.61 760.696C1033.53 761.066 1033.46 761.342 1033.41 761.524L1032.09 766.253H1030.67L1029.64 762.265L1028.59 758.287H1029.92L1031.06 762.929C1031.24 763.674 1031.37 764.331 1031.44 764.902C1031.48 764.593 1031.54 764.248 1031.62 763.867C1031.7 763.485 1031.78 763.176 1031.84 762.94L1033.14 758.287H1034.43L1035.76 762.962C1035.89 763.394 1036.02 764.041 1036.16 764.902C1036.22 764.382 1036.35 763.721 1036.55 762.919L1037.69 758.287H1039.01L1036.93 766.253ZM1040.81 766.253V758.287H1042.11V766.253H1040.81ZM1047.64 766.253H1046.34V759.404H1044V758.287H1049.98V759.404H1047.64V766.253ZM1058.16 766.253H1056.85V762.662H1053.18V766.253H1051.88V758.287H1053.18V761.546H1056.85V758.287H1058.16V766.253ZM1067.25 766.253H1065.95V759.404H1063.6V758.287H1069.59V759.404H1067.25V766.253ZM1077.77 766.253H1076.46V762.662H1072.79V766.253H1071.49V758.287H1072.79V761.546H1076.46V758.287H1077.77V766.253ZM1085.04 766.253H1080.54V758.287H1085.04V759.388H1081.84V761.556H1084.84V762.646H1081.84V765.147H1085.04V766.253Z" fill="#CDDDD7"/>
</g>
</g>
<defs>
<filter id="filter0_d" x="-427" y="631" width="5014" height="298" filterUnits="userSpaceOnUse" color-interpolation-filters="sRGB">
<feFlood flood-opacity="0" result="BackgroundImageFix"/>
<feColorMatrix in="SourceAlpha" type="matrix" values="0 0 0 0 0 0 0 0 0 0 0 0 0 0 0 0 0 0 127 0"/>
<feOffset dy="4"/>
<feGaussianBlur stdDeviation="12.5"/>
<feColorMatrix type="matrix" values="0 0 0 0 0 0 0 0 0 0 0 0 0 0 0 0 0 0 0.15 0"/>
<feBlend mode="normal" in2="BackgroundImageFix" result="effect1_dropShadow"/>
<feBlend mode="normal" in="SourceGraphic" in2="effect1_dropShadow" result="shape"/>
</filter>
<linearGradient id="paint0_linear" x1="960.094" y1="1028.5" x2="965.808" y2="103.938" gradientUnits="userSpaceOnUse">
<stop stop-color="white" stop-opacity="0.62"/>
<stop offset="1" stop-color="white" stop-opacity="0"/>
</linearGradient>
<clipPath id="clip0">
<rect width="2394" height="900" fill="white"/>
</clipPath>
<clipPath id="clip1">
<rect width="236" height="118.279" fill="white" transform="translate(859 747)"/>
</clipPath>
</defs>
</svg>
