<svg width="1468" height="82" viewBox="0 0 1468 82" fill="none" xmlns="http://www.w3.org/2000/svg">
<g clip-path="url(#clip0)">
<path d="M1468 0H0V82H1468V0Z" fill="#009292"/>
<path fill-rule="evenodd" clip-rule="evenodd" d="M1425.53 100V88.5248C1391.72 42.0498 1369.04 23.0182 1281.43 78.0248C1269.78 87.4803 1259.72 95.1258 1250.4 100H1425.53ZM1210.57 100C1203.36 95.5291 1195.82 88.3676 1187.51 78.0248C1166.01 -1.9669 1122.9 -9.4125 962.378 78.0248C945.744 88.0656 931.375 95.3711 918.36 100H1210.57ZM857.545 100C846.255 95.3362 834.715 87.9903 821.96 78.0248C784.532 34.5346 740.844 13.027 676.006 13H675.762C600.058 13.0315 495.544 42.2971 338.577 100H857.545ZM334.862 100H43C174.383 3.60708 240.122 -4.1839 334.862 100Z" fill="#1F8365"/>
<path fill-rule="evenodd" clip-rule="evenodd" d="M0 69.7776V98H159.984C149.734 93.5391 138.253 84.5987 124.5 69.7776C75.8809 24.7866 48.6213 26.2058 0 69.7776ZM191.471 98H1504V84.5C1413.98 43.7537 1300.55 7.12428 1215.5 69.7776C1180.64 86.9602 1160.51 95.5655 1101 69.7776C956.535 12.5503 875.503 -14.5507 636 74.7049C634.225 75.2244 632.488 75.7364 630.784 76.2386C593.131 87.3387 571.692 93.659 515.5 69.7776C501.914 65.1077 488.87 60.4737 476.32 56.0149C367.835 17.4714 296.221 -7.97192 229.5 69.7776C228.702 70.4705 227.911 71.1577 227.128 71.8387C213.886 83.3501 202.727 93.0506 191.471 98Z" fill="#3E7B69"/>
<path d="M334 68.0661C337.443 65.2498 340.611 61.8366 345.373 54.9047C342.889 54.6443 340.256 54.2118 337.219 53.6398C340.241 51.0659 343.384 47.1845 348.001 39.9439C345.929 39.6356 343.749 39.1116 341.244 38.3972C345.081 35.2424 349.15 29.6756 357.341 16C365.532 29.675 369.602 35.2417 373.439 38.3964C370.934 39.1108 368.753 39.6347 366.682 39.9431C371.299 47.1837 374.442 51.0651 377.463 53.639C374.427 54.211 371.794 54.6435 369.31 54.9039C374.072 61.8358 377.24 65.2491 380.683 68.0654C376.032 69.8805 370.513 70.5412 361.366 70.7524V82H353.317V70.7532C344.17 70.542 338.651 69.8812 334 68.0661Z" fill="#004F54"/>
<path d="M547 48.1773C549.95 45.7877 552.665 42.8916 556.745 37.01C554.616 36.7891 552.361 36.4222 549.758 35.9368C552.347 33.7529 555.041 30.4596 558.996 24.316C557.222 24.0544 555.353 23.6098 553.207 23.0037C556.495 20.3269 559.981 15.6035 567 4C574.018 15.603 577.505 20.3263 580.793 23.003C578.647 23.6091 576.778 24.0537 575.004 24.3153C578.959 30.4589 581.652 33.7522 584.241 35.9361C581.639 36.4215 579.384 36.7884 577.255 37.0093C581.335 42.891 584.05 45.7871 587 48.1767C583.015 49.7168 578.286 50.2774 570.448 50.4566V60H563.552V50.4573C555.714 50.2781 550.985 49.7174 547 48.1773Z" fill="#004F54"/>
<path d="M706 60.4883C709.393 57.7574 712.515 54.4476 717.206 47.7257C714.759 47.4733 712.165 47.0539 709.172 46.4992C712.15 44.0033 715.247 40.2395 719.796 33.2183C717.755 32.9193 715.606 32.4112 713.138 31.7185C716.919 28.6593 720.929 23.2612 729 10C737.071 23.2606 741.081 28.6586 744.862 31.7177C742.394 32.4104 740.245 32.9185 738.204 33.2175C742.753 40.2387 745.85 44.0025 748.828 46.4984C745.835 47.0531 743.241 47.4725 740.794 47.725C745.485 54.4469 748.607 57.7567 752 60.4877C747.417 62.2478 741.979 62.8884 732.966 63.0932V74H725.034V63.094C716.021 62.8892 710.583 62.2484 706 60.4883Z" fill="#004F54"/>
<path d="M813 45.8775C814.549 44.6401 815.974 43.1403 818.116 40.0945C816.999 39.9801 815.814 39.79 814.448 39.5387C815.807 38.4077 817.221 36.7023 819.298 33.5208C818.366 33.3853 817.385 33.1551 816.259 32.8412C817.985 31.455 819.815 29.009 823.5 23C827.185 29.0087 829.015 31.4547 830.741 32.8408C829.615 33.1547 828.634 33.385 827.702 33.5204C829.779 36.7019 831.192 38.4074 832.552 39.5383C831.186 39.7897 830.001 39.9797 828.884 40.0941C831.026 43.14 832.451 44.6397 834 45.8772C831.908 46.6748 829.425 46.9651 825.31 47.0579V52H821.69V47.0582C817.575 46.9654 815.092 46.6751 813 45.8775Z" fill="#004F54"/>
<path d="M1036 32.8775C1037.55 31.6401 1038.97 30.1403 1041.12 27.0945C1040 26.9801 1038.81 26.79 1037.45 26.5387C1038.81 25.4077 1040.22 23.7023 1042.3 20.5208C1041.37 20.3853 1040.39 20.1551 1039.26 19.8412C1040.98 18.455 1042.82 16.009 1046.5 10C1050.18 16.0087 1052.02 18.4547 1053.74 19.8408C1052.61 20.1547 1051.63 20.385 1050.7 20.5204C1052.78 23.7019 1054.19 25.4074 1055.55 26.5383C1054.19 26.7897 1053 26.9797 1051.88 27.0941C1054.03 30.14 1055.45 31.6397 1057 32.8772C1054.91 33.6748 1052.43 33.9651 1048.31 34.0579V39H1044.69V34.0582C1040.57 33.9654 1038.09 33.6751 1036 32.8775Z" fill="#004F54"/>
<path d="M1405 61.0774C1407.58 59.0718 1409.96 56.6412 1413.53 51.7048C1411.66 51.5194 1409.69 51.2115 1407.41 50.8041C1409.68 48.9712 1412.04 46.2071 1415.5 41.0509C1413.94 40.8314 1412.31 40.4582 1410.43 39.9495C1413.31 37.7029 1416.36 33.7387 1422.5 24C1428.64 33.7382 1431.69 37.7024 1434.57 39.949C1432.69 40.4577 1431.06 40.8308 1429.5 41.0504C1432.96 46.2066 1435.32 48.9706 1437.59 50.8035C1435.31 51.2109 1433.34 51.5188 1431.47 51.7043C1435.04 56.6407 1437.42 59.0713 1440 61.0769C1436.51 62.3695 1432.38 62.8399 1425.52 62.9903V71H1419.48V62.9909C1412.62 62.8405 1408.49 62.3699 1405 61.0774Z" fill="#004F54"/>
<path d="M220 37.6108C221.918 36.1173 223.682 34.3073 226.334 30.6313C224.951 30.4932 223.484 30.2639 221.793 29.9605C223.476 28.5956 225.226 26.5372 227.798 22.6975C226.644 22.534 225.429 22.2561 224.034 21.8773C226.171 20.2043 228.438 17.2522 233 10C237.562 17.2519 239.828 20.2039 241.966 21.8769C240.57 22.2557 239.356 22.5336 238.202 22.6971C240.774 26.5368 242.524 28.5951 244.207 29.9601C242.516 30.2634 241.049 30.4928 239.666 30.6308C242.318 34.3069 244.082 36.1169 246 37.6104C243.41 38.573 240.336 38.9233 235.241 39.0353V45H230.759V39.0358C225.664 38.9238 222.59 38.5734 220 37.6108Z" fill="#004F54"/>
<path d="M414.293 62.2337C412.176 62.6324 410.341 62.9338 408.61 63.1152C411.929 67.9466 414.137 70.3256 416.537 72.2885C413.295 73.5535 409.449 74.0142 403.073 74.1614V82.0001H400.269H397.464V74.1618C391.088 74.0146 387.242 73.5541 384 72.2891C386.4 70.3261 388.608 67.9472 391.927 63.1156C390.195 62.9342 388.361 62.6327 386.244 62.2341C388.35 60.4401 390.541 57.735 393.758 52.6887C392.315 52.4738 390.795 52.1086 389.049 51.6107C391.723 49.4119 394.559 45.5321 400.268 36.001C405.977 45.5324 408.814 49.4115 411.488 51.6103C409.742 52.1082 408.222 52.4734 406.779 52.6883C409.996 57.7346 412.187 60.4398 414.293 62.2337Z" fill="#004F54"/>
<path d="M185.293 54.2327C183.176 54.6314 181.341 54.9328 179.61 55.1143C182.929 59.9456 185.137 62.3246 187.537 64.2875C184.295 65.5525 180.449 66.0132 174.073 66.1604V73.9991H171.269H168.464V66.1608C162.088 66.0136 158.242 65.5532 155 64.2881C157.4 62.3252 159.608 59.9462 162.927 55.1147C161.195 54.9332 159.361 54.6318 157.244 54.2331C159.35 52.4392 161.541 49.734 164.758 44.6877C163.315 44.4728 161.795 44.1076 160.049 43.6097C162.723 41.411 165.559 37.5311 171.268 28C176.977 37.5314 179.814 41.4106 182.488 43.6093C180.742 44.1072 179.222 44.4724 177.779 44.6873C180.996 49.7336 183.187 52.4388 185.293 54.2327Z" fill="#004F54"/>
<path fill-rule="evenodd" clip-rule="evenodd" d="M1208 82H1233.49C1231.63 80.4949 1229.9 78.6543 1227.33 74.9747C1228.69 74.8343 1230.14 74.6011 1231.81 74.2927C1230.15 72.905 1228.42 70.8124 1225.88 66.9087C1227.02 66.7425 1228.22 66.46 1229.6 66.0748C1227.49 64.374 1225.25 61.3728 1220.75 54C1216.24 61.3731 1214 64.3744 1211.89 66.0753C1213.27 66.4604 1214.47 66.7429 1215.61 66.9091C1213.07 70.8129 1211.34 72.9055 1209.68 74.2932C1211.35 74.6016 1212.8 74.8347 1214.16 74.9751C1211.59 78.6543 1209.86 80.495 1208 82Z" fill="#004F54"/>
</g>
<defs>
<clipPath id="clip0">
<rect width="1468" height="82" fill="white"/>
</clipPath>
</defs>
</svg>
